<svg width="1200" height="630" viewBox="0 0 1200 630" fill="none" xmlns="http://www.w3.org/2000/svg">
  <rect width="1200" height="630" fill="#0B0B10"/>
  
  <!-- Background gradient -->
  <defs>
    <linearGradient id="bgGradient" x1="0" y1="0" x2="1200" y2="630" gradientUnits="userSpaceOnUse">
      <stop stop-color="#0B0B10"/>
      <stop offset="1" stop-color="#151621"/>
    </linearGradient>
    <linearGradient id="logoGradient" x1="0" y1="0" x2="120" y2="120" gradientUnits="userSpaceOnUse">
      <stop stop-color="#7B61FF"/>
      <stop offset="1" stop-color="#3EC3FF"/>
    </linearGradient>
  </defs>
  
  <rect width="1200" height="630" fill="url(#bgGradient)"/>
  
  <!-- Logo -->
  <g transform="translate(100, 200)">
    <rect x="0" y="0" width="120" height="120" rx="24" fill="url(#logoGradient)"/>
    <path d="M60 20L40 40H80L60 20Z" fill="#0A0A0A"/>
    <path d="M60 100L80 80H40L60 100Z" fill="#0A0A0A"/>
    <path d="M20 60L40 40V80L20 60Z" fill="#0A0A0A"/>
    <path d="M100 60L80 80V40L100 60Z" fill="#0A0A0A"/>
  </g>
  
  <!-- Text -->
  <text x="280" y="250" font-family="Inter, sans-serif" font-size="72" font-weight="800" fill="#E9ECF1">E9TH</text>
  <text x="280" y="320" font-family="Inter, sans-serif" font-size="36" font-weight="600" fill="#9AA1AC">where utility comes full circle</text>
  <text x="280" y="380" font-family="Inter, sans-serif" font-size="24" font-weight="400" fill="#7B61FF">Solana • Utility Token</text>
  
  <!-- Decorative elements -->
  <circle cx="1000" cy="150" r="80" fill="rgba(123, 97, 255, 0.1)"/>
  <circle cx="1050" cy="450" r="60" fill="rgba(62, 195, 255, 0.1)"/>
</svg>
